<svg width="17" height="17" viewBox="0 0 17 17" fill="none" xmlns="http://www.w3.org/2000/svg">
<g clip-path="url(#clip0_2035_2994)">
<path fill-rule="evenodd" clip-rule="evenodd" d="M13.2585 5.46667H11.8333V4.80001C11.8333 2.95907 10.3409 1.46667 8.5 1.46667C6.65906 1.46667 5.16667 2.95907 5.16667 4.80001V5.46667H3.74149C2.69221 5.46667 1.82134 6.27757 1.74658 7.32419L1.37241 12.5625C1.23459 14.4921 2.76281 16.1333 4.69728 16.1333H12.3027C14.2372 16.1333 15.7654 14.4921 15.6276 12.5625L15.2534 7.32419C15.1787 6.27757 14.3078 5.46667 13.2585 5.46667ZM10.5 4.80001V5.46667H6.5V4.80001C6.5 3.69544 7.39543 2.80001 8.5 2.80001C9.60457 2.80001 10.5 3.69544 10.5 4.80001ZM3.07652 7.41917C3.10144 7.0703 3.39173 6.80001 3.74149 6.80001H13.2585C13.6083 6.80001 13.8986 7.0703 13.9235 7.41917L14.2977 12.6575C14.3803 13.8152 13.4634 14.8 12.3027 14.8H4.69728C3.53659 14.8 2.61966 13.8152 2.70237 12.6575L3.07652 7.41917ZM6.49984 8.80009C6.49984 8.43189 6.20137 8.13342 5.83317 8.13342C5.46497 8.13342 5.1665 8.43189 5.1665 8.80009C5.1665 10.641 6.6589 12.1334 8.49984 12.1334C10.3408 12.1334 11.8332 10.641 11.8332 8.80009C11.8332 8.43189 11.5347 8.13342 11.1665 8.13342C10.7983 8.13342 10.4998 8.43189 10.4998 8.80009C10.4998 9.90466 9.60441 10.8001 8.49984 10.8001C7.39527 10.8001 6.49984 9.90466 6.49984 8.80009Z" fill="#4B5563"/>
</g>
<defs>
<clipPath id="clip0_2035_2994">
<rect width="16" height="16" fill="white" transform="translate(0.5 0.800049)"/>
</clipPath>
</defs>
</svg>
