<svg width="34" height="37" viewBox="0 0 34 37" fill="none" xmlns="http://www.w3.org/2000/svg">
<path d="M2 12H3.74001C4.82001 12 5.67 12.93 5.58 14L4.75 23.96C4.61 25.59 5.89999 26.99 7.53999 26.99H18.19C19.63 26.99 20.89 25.81 21 24.38L21.54 16.88C21.66 15.22 20.4 13.87 18.73 13.87H5.82001" stroke="#A8A8A8" stroke-width="1.5" stroke-miterlimit="10" stroke-linecap="round" stroke-linejoin="round"/>
<path d="M16.25 32C16.9404 32 17.5 31.4404 17.5 30.75C17.5 30.0596 16.9404 29.5 16.25 29.5C15.5596 29.5 15 30.0596 15 30.75C15 31.4404 15.5596 32 16.25 32Z" stroke="#A8A8A8" stroke-width="1.5" stroke-miterlimit="10" stroke-linecap="round" stroke-linejoin="round"/>
<path d="M8.25 32C8.94036 32 9.5 31.4404 9.5 30.75C9.5 30.0596 8.94036 29.5 8.25 29.5C7.55964 29.5 7 30.0596 7 30.75C7 31.4404 7.55964 32 8.25 32Z" stroke="#A8A8A8" stroke-width="1.5" stroke-miterlimit="10" stroke-linecap="round" stroke-linejoin="round"/>
<path d="M9 18H21" stroke="#A8A8A8" stroke-width="1.5" stroke-miterlimit="10" stroke-linecap="round" stroke-linejoin="round"/>
<rect x="14" width="20" height="20" rx="10" fill="#0EA5E9"/>
<path d="M21.1335 7.412C21.1815 6.668 21.4655 6.088 21.9855 5.672C22.5135 5.256 23.1855 5.048 24.0015 5.048C24.5615 5.048 25.0455 5.148 25.4535 5.348C25.8615 5.548 26.1695 5.82 26.3775 6.164C26.5855 6.508 26.6895 6.896 26.6895 7.328C26.6895 7.824 26.5575 8.248 26.2935 8.6C26.0295 8.952 25.7135 9.188 25.3455 9.308V9.356C25.8175 9.5 26.1855 9.764 26.4495 10.148C26.7135 10.524 26.8455 11.008 26.8455 11.6C26.8455 12.072 26.7375 12.492 26.5215 12.86C26.3055 13.228 25.9855 13.52 25.5615 13.736C25.1375 13.944 24.6295 14.048 24.0375 14.048C23.1735 14.048 22.4615 13.828 21.9015 13.388C21.3495 12.94 21.0535 12.3 21.0135 11.468H22.3335C22.3655 11.892 22.5295 12.24 22.8255 12.512C23.1215 12.776 23.5215 12.908 24.0255 12.908C24.5135 12.908 24.8895 12.776 25.1535 12.512C25.4175 12.24 25.5495 11.892 25.5495 11.468C25.5495 10.908 25.3695 10.512 25.0095 10.28C24.6575 10.04 24.1135 9.92 23.3775 9.92H23.0655V8.792H23.3895C24.0375 8.784 24.5295 8.676 24.8655 8.468C25.2095 8.26 25.3815 7.932 25.3815 7.484C25.3815 7.1 25.2575 6.796 25.0095 6.572C24.7615 6.34 24.4095 6.224 23.9535 6.224C23.5055 6.224 23.1575 6.34 22.9095 6.572C22.6615 6.796 22.5135 7.076 22.4655 7.412H21.1335Z" fill="white"/>
</svg>
